Coordinates
version=1
nRows=11
nColumns=36
inDegrees=yes

Units are S.I. units (second, meters, Newtons, ...)
If the header above contains a line with 'inDegrees', this indicates whether rotational values are in degrees (yes) or radians (no).

endheader
time	pelvis_tilt	pelvis_list	pelvis_rotation	pelvis_tx	pelvis_ty	pelvis_tz	hip_flexion_r	hip_adduction_r	hip_rotation_r	knee_angle_r	knee_angle_r_beta	ankle_angle_r	subtalar_angle_r	mtp_angle_r	hip_flexion_l	hip_adduction_l	hip_rotation_l	knee_angle_l	knee_angle_l_beta	ankle_angle_l	subtalar_angle_l	mtp_angle_l	lumbar_extension	lumbar_bending	lumbar_rotation	arm_flex_r	arm_add_r	arm_rot_r	elbow_flex_r	pro_sup_r	arm_flex_l	arm_add_l	arm_rot_l	elbow_flex_l	pro_sup_l
      4.40000000	    -23.71231080	      2.81438860	      0.34709588	      1.18324474	      0.72681883	     -0.01110551	     74.34210475	    -18.84310095	     -2.13327901	     72.43523536	      1.26423335	     26.41375303	     -8.64849697	     -7.49999987	     69.74028188	    -13.88941858	     -2.40214334	     68.62528059	      1.19773710	     17.06197560	    -18.82681951	     -7.49999987	    -23.17446038	      7.62858760	      1.09543523	     53.71822656	     -7.87616704	   -338.92652321	     94.74650608	     97.79286931	     36.90151227	     -9.06122762	     10.73704440	     98.26399621	     98.97743794
      4.41666670	    -25.64217765	      3.11017465	      0.21009872	      1.16688601	      0.69670247	     -0.00879496	     81.13657086	    -19.03667997	     -0.57403277	     78.02091705	      1.36172189	     27.59252389	     -9.04411640	     -7.49999987	     76.22368806	    -14.23944926	     -1.83096291	     74.39589650	      1.29845334	     18.11113385	    -19.50856243	     -7.49999987	    -24.46138596	      6.99276988	      1.63852346	     62.47660677	     -6.07124846	   -332.52165127	    100.26391032	    103.82533847	     46.17553008	     -7.98237411	     14.26285387	    104.44331394	    102.77759209
      4.43333330	    -27.31605537	      3.31273691	      0.16581871	      1.14852212	      0.67295855	     -0.00351394	     87.35097891	    -18.84610281	      0.89256907	     82.87197304	      1.44638879	     28.05025864	     -9.97601718	     -7.49999987	     82.32885425	    -14.59745485	     -1.11337752	     79.38171000	      1.38547221	     18.37356304	    -20.18343650	     -7.49999987	    -25.38987498	      6.08006171	      2.23023943	     69.93112215	     -4.59821208	   -329.00815518	    105.20799402	    104.71415929	     55.65642520	     -7.12447672	     17.54438725	    108.53956047	    103.59230790
      4.45000000	    -28.83154466	      3.43400818	      0.25356313	      1.13735069	      0.65674560	     -0.00335292	     92.87201539	    -18.57552319	      2.11227049	     86.87115255	      1.51618764	     27.99010468	    -11.16071253	     -7.49999987	     87.85326655	    -14.71299004	     -0.27975686	     83.43220099	      1.45616661	     18.10862323	    -20.82098740	     -7.49999987	    -26.09367013	      5.52466300	      2.29411814	     76.14692721	     -3.51053061	   -326.35026034	    108.48904079	    104.53213359	     64.10137281	     -5.75958225	     19.96636583	    110.43886149	    103.37232244
      4.46666670	    -29.70882490	      3.50914219	      0.34664793	      1.12658983	      0.64254041	     -0.00928250	     97.15219603	    -18.34615690	      3.04978546	     89.97332391	      1.57033074	     27.53064100	    -12.31291918	     -7.49999987	     92.19326144	    -14.63712956	      0.45312667	     86.66390330	      1.51257046	     17.68047535	    -21.16547724	     -7.49999987	    -27.46052323	      4.83512989	      2.86847879	     81.75884255	     -4.15914546	   -326.08682725	    112.21891005	    105.05409876	     71.91398300	     -3.53133126	     23.71513886	    110.57930371	    104.40601158
      4.48333330	    -30.42282607	      3.50465894	      0.61890866	      1.12584955	      0.62430857	     -0.00807096	    100.77662457	    -18.28851560	      3.88906703	     92.65814408	      1.61718969	     27.19401459	    -13.17989477	     -7.49999987	     95.89414059	    -14.21209992	      1.24378938	     89.36519830	      1.55971695	     17.25105634	    -21.49597108	     -7.49999987	    -27.77420002	      4.61503489	      2.64172955	     84.30969214	     -3.67882335	   -325.22647651	    115.35496898	    105.90346108	     75.47294814	     -1.50783342	     24.82875946	    112.81809831	    105.54649308
      4.50000000	    -30.71969628	      3.50624971	      0.89194639	      1.10423568	      0.61095999	     -0.01394959	    103.68880951	    -18.25770827	      4.68359257	     94.80576910	      1.65467282	     26.45077699	    -14.10062435	     -7.49999987	     98.81172180	    -13.67121419	      1.81348914	     91.55230307	      1.59788913	     16.71607507	    -21.74583958	     -7.49999987	    -28.84341668	      4.43739428	      2.89957003	     88.95781593	     -5.26955841	   -326.78952645	    116.20276826	    105.61737190	     81.28274679	      0.62172960	     25.90293338	    111.53353594	    105.69738140
      4.51666670	    -31.04186696	      3.50479286	      1.16072537	      1.10966677	      0.60220119	     -0.01169641	    106.16014292	    -18.26589574	      5.30101253	     96.54556212	      1.68503794	     25.94166861	    -14.48560711	     -7.49999987	    101.22807018	    -13.12227219	      2.24367973	     93.28630143	      1.62815311	     16.48227020	    -21.67198492	     -7.49999987	    -29.16710501	      4.07018516	      3.03886424	     89.34094675	     -5.66596778	   -326.34632493	    119.74348921	    105.02095373	     82.54968585	      2.95640628	     25.13363755	    111.89201279	    105.74202898
      4.53333330	    -31.21079487	      3.42884692	      1.48402013	      1.11003432	      0.59896205	     -0.01239730	    107.73458656	    -18.39651125	      5.69220616	     97.68459364	      1.70491779	     25.41994431	    -14.76962439	     -7.49999987	    102.81828638	    -12.51373335	      2.58620753	     94.41079457	      1.64777921	     16.46841627	    -21.44524399	     -7.49999987	    -29.75159349	      4.06431262	      3.16180067	     90.15944665	     -6.85760078	   -325.06416096	    122.48362629	    104.94569616	     83.28420538	      4.39763479	     25.46382883	    112.43813211	    106.10423851
      4.55000000	    -31.39062108	      3.26434860	      1.80513520	      1.10961423	      0.59427962	     -0.01271296	    108.77186899	    -18.61427413	      5.86370076	     98.37931779	      1.71704301	     24.97502662	    -14.92760450	     -7.49999987	    103.92517636	    -11.92002609	      2.89448448	     95.14994088	      1.66067975	     16.50289301	    -21.32988929	     -7.49999987	    -29.94469290	      4.20787102	      2.93736871	     90.78106016	     -7.36762256	   -324.35088904	    124.52566844	    103.94256988	     83.95032439	      4.91560362	     25.48274140	    113.39577882	    105.45711143
      4.56666670	    -31.61114757	      3.13898880	      2.14911630	      1.09920260	      0.59126949	     -0.01323299	    109.57874520	    -18.86961664	      5.94424899	     98.71503020	      1.72290230	     24.38046965	    -15.13256178	     -7.49999987	    104.75785919	    -11.43026897	      2.96717292	     95.56846820	      1.66798443	     16.63100577	    -21.00714316	     -7.49999987	    -30.05106229	      4.14596186	      3.18669339	     92.29032599	     -8.88160775	   -323.72434518	    125.16428541	    104.17424233	     85.37657521	      5.25753769	     26.33579650	    112.38341369	    105.75918858
